# xmcd
#
# Track frame offsets:
#	150
#	21821
#	50496
#	63878
#	90002
#	103543
#	121090
#	150394
#	171344
#	195494
#	216142
#
# Disc length: 3165 seconds
#
# Revision: 17
# Processed by: cddbd v1.5.2PL0 Copyright (c) Steve Scherf et al.
# Submitted via: Jack! The Knife 20 Magnifico
#
DISCID=7e0c5b0b
DTITLE=Savatage - Gutter Ballet
DYEAR=1989
DGENRE=Heavy Metal
TTITLE0=Of Rage And War
TTITLE1=Gutter Ballet
TTITLE2=Temptation Revelation
TTITLE3=When The Crowds Are Gone
TTITLE4=Silk And Steel
TTITLE5=She's In Love
TTITLE6=Hounds
TTITLE7=The Unholy
TTITLE8=Mentally Yours
TTITLE9=Summer's Rain
TTITLE10=Thorazine Shuffle
EXTD=Paul O'Neill
EXTT0=C. Oliva, J. Oliva, O'Neill
EXTT1=C. Oliva, J. Oliva, O'Neill
EXTT2=C. Oliva, J. Oliva, O'Neill
EXTT3=C. Oliva, J. Oliva, O'Neill
EXTT4=C. Oliva, Silver
EXTT5=C. Oliva, J. Oliva, O'Neill
EXTT6=C. Oliva, J. Oliva, O'Neill
EXTT7=C. Oliva, J. Oliva, O'Neill
EXTT8=C. Oliva, J. Oliva, O'Neill
EXTT9=C. Oliva, J. Oliva, O'Neill
EXTT10=C. Oliva, J. Oliva, O'Neill
PLAYORDER=
